name Run_200 02_newCOP3_v24.mot
datacolumns 19
datarows 102
range 1.433333 1.538542
DataType=double
version=3
OpenSimVersion=4.3-2021-08-27-4bc7ad9
endheader
time	R_ground_force_vx	R_ground_force_vy	R_ground_force_vz	R_ground_force_px	R_ground_force_py	R_ground_force_pz	L_ground_force_vx	L_ground_force_vy	L_ground_force_vz	L_ground_force_px	L_ground_force_py	L_ground_force_pz	R_ground_torque_x	R_ground_torque_y	R_ground_torque_z	L_ground_torque_x	L_ground_torque_y	L_ground_torque_z
1.433333	0	0	0	0	0	0	-128.353745	1089.677124	5.241969	0.982849	0	-0.374052	0	0	0	-0	6.334057	-0
1.434375	0	0	0	0	0	0	-130.698593	1097.772705	7.543799	0.982173	0	-0.373876	0	0	0	-0	6.293603	-0
1.435417	0	0	0	0	0	0	-132.933487	1106.166016	9.984916999999999	0.981482	0	-0.373672	0	0	0	-0	6.239679	-0
1.436458	0	0	0	0	0	0	-135.041748	1114.80481	12.533117	0.980772	0	-0.373451	0	0	0	-0	6.17269	-0
1.4375	0	0	0	0	0	0	-137.006409	1123.635498	15.154957	0.980035	0	-0.373222	0	0	0	-0	6.093097	-0
1.438542	0	0	0	0	0	0	-138.810532	1132.60376	17.816477	0.979266	0	-0.372997	0	0	0	-0	6.001411	-0
1.439583	0	0	0	0	0	0	-140.437408	1141.65564	20.483942	0.978457	0	-0.372785	0	0	0	-0	5.898187	-0
1.440625	0	0	0	0	0	0	-141.87088	1150.738281	23.124569	0.977604	0	-0.372596	0	0	0	-0	5.784018	-0
1.441667	0	0	0	0	0	0	-143.095657	1159.80127	25.70722	0.976704	0	-0.372436	0	0	0	-0	5.659527	-0
1.442708	0	0	0	0	0	0	-144.097733	1168.796387	28.203077	0.975752	0	-0.372315	0	0	0	-0	5.525365	-0
1.44375	0	0	0	0	0	0	-144.864883	1177.679199	30.586222	0.9747479999999999	0	-0.372237	0	0	0	-0	5.382199	-0
1.444792	0	0	0	0	0	0	-145.38707	1186.409424	32.834171	0.973691	0	-0.372207	0	0	0	-0	5.230712	-0
1.445833	0	0	0	0	0	0	-145.657028	1194.950806	34.928307	0.97258	0	-0.372229	0	0	0	-0	5.071592	-0
1.446875	0	0	0	0	0	0	-145.6707	1203.272217	36.854225	0.971418	0	-0.372305	0	0	0	-0	4.905531	-0
1.447917	0	0	0	0	0	0	-145.427643	1211.3479	38.601959	0.970207	0	-0.372434	0	0	0	-0	4.733217	-0
1.448958	0	0	0	0	0	0	-144.931427	1219.15686	40.166115	0.968951	0	-0.372617	0	0	0	-0	4.555332	-0
1.45	0	0	0	0	0	0	-144.189804	1226.683594	41.545872	0.967652	0	-0.372851	0	0	0	-0	4.372547	-0
1.451042	0	0	0	0	0	0	-143.214813	1233.917969	42.744896	0.966318	0	-0.373133	0	0	0	-0	4.185519	-0
1.452083	0	0	0	0	0	0	-142.022659	1240.854614	43.771133	0.964952	0	-0.37346	0	0	0	-0	3.994889	-0
1.453125	0	0	0	0	0	0	-140.633377	1247.493286	44.636494	0.963562	0	-0.373826	0	0	0	-0	3.801276	-0
1.454167	0	0	0	0	0	0	-139.070511	1253.837769	45.356468	0.962152	0	-0.374226	0	0	0	-0	3.605283	-0
1.455208	0	0	0	0	0	0	-137.360336	1259.895996	45.949627	0.9607290000000001	0	-0.374654	0	0	0	-0	3.407485	-0
1.45625	0	0	0	0	0	0	-135.531219	1265.679443	46.437084	0.959299	0	-0.375102	0	0	0	-0	3.20844	-0
1.457292	0	0	0	0	0	0	-133.612732	1271.202515	46.841888	0.957867	0	-0.375565	0	0	0	-0	3.008678	-0
1.458333	0	0	0	0	0	0	-131.63472	1276.481934	47.188389	0.956439	0	-0.376034	0	0	0	-0	2.80871	-0
1.459375	0	0	0	0	0	0	-129.626373	1281.536377	47.50156	0.955019	0	-0.376504	0	0	0	-0	2.609021	-0
1.460417	0	0	0	0	0	0	-127.615372	1286.385864	47.806332	0.953611	0	-0.376966	0	0	0	-0	2.410076	-0
1.461458	0	0	0	0	0	0	-125.627083	1291.050537	48.126953	0.952218	0	-0.377414	0	0	0	-0	2.212319	-0
1.4625	0	0	0	0	0	0	-123.683807	1295.551147	48.486336	0.950842	0	-0.377841	0	0	0	-0	2.016172	-0
1.463542	0	0	0	0	0	0	-121.804276	1299.907837	48.905491	0.949485	0	-0.378243	0	0	0	-0	1.822038	-0
1.464583	0	0	0	0	0	0	-120.003265	1304.139282	49.402992	0.948148	0	-0.378614	0	0	0	-0	1.630304	-0
1.465625	0	0	0	0	0	0	-118.291359	1308.263306	49.994526	0.946829	0	-0.37895	0	0	0	-0	1.441336	-0
1.466667	0	0	0	0	0	0	-116.674911	1312.295166	50.69252	0.945529	0	-0.379247	0	0	0	-0	1.255487	-0
1.467708	0	0	0	0	0	0	-115.156181	1316.248169	51.50584	0.944246	0	-0.379503	0	0	0	-0	1.073094	-0
1.46875	0	0	0	0	0	0	-113.733589	1320.133057	52.439636	0.942977	0	-0.379717	0	0	0	-0	0.894476	-0
1.469792	0	0	0	0	0	0	-112.402092	1323.957275	53.495216	0.94172	0	-0.379888	0	0	0	-0	0.71994	-0
1.470833	0	0	0	0	0	0	-111.153648	1327.725586	54.67009	0.940472	0	-0.380018	0	0	0	-0	0.549777	-0
1.471875	0	0	0	0	0	0	-109.977753	1331.439331	55.958054	0.93923	0	-0.380107	0	0	0	-0	0.384265	-0
1.472917	0	0	0	0	0	0	-108.862007	1335.096924	57.349419	0.93799	0	-0.380159	0	0	0	-0	0.223665	-0
1.473958	0	0	0	0	0	0	-107.792717	1338.693604	58.831287	0.93675	0	-0.380177	0	0	0	-0	0.06822400000000001	-0
1.475	0	0	0	0	0	0	-106.755394	1342.221558	60.387932	0.935507	0	-0.380166	0	0	0	0	-0.08183	0
1.476042	0	0	0	0	0	0	-105.735367	1345.67041	62.00124	0.934257	0	-0.38013	0	0	0	0	-0.226283	0
1.477083	0	0	0	0	0	0	-104.718224	1349.027344	63.651207	0.932998	0	-0.380076	0	0	0	0	-0.364941	0
1.478125	0	0	0	0	0	0	-103.690254	1352.277466	65.316467	0.931728	0	-0.380008	0	0	0	0	-0.49763	0
1.479167	0	0	0	0	0	0	-102.63887	1355.404419	66.974892	0.930444	0	-0.379933	0	0	0	0	-0.624198	0
1.480208	0	0	0	0	0	0	-101.552879	1358.390625	68.60412599999999	0.929145	0	-0.379858	0	0	0	0	-0.744512	0
1.48125	0	0	0	0	0	0	-100.422768	1361.218018	70.182213	0.92783	0	-0.379787	0	0	0	0	-0.858465	0
1.482292	0	0	0	0	0	0	-99.240898	1363.868286	71.68810999999999	0.926498	0	-0.379728	0	0	0	0	-0.965974	0
1.483333	0	0	0	0	0	0	-98.00160200000001	1366.323975	73.10226400000001	0.925148	0	-0.379684	0	0	0	0	-1.066983	0
1.484375	0	0	0	0	0	0	-96.701302	1368.568237	74.407059	0.92378	0	-0.37966	0	0	0	0	-1.161459	0
1.485417	0	0	0	0	0	0	-95.33847799999999	1370.585938	75.58725	0.922394	0	-0.379661	0	0	0	0	-1.249401	0
1.486458	0	0	0	0	0	0	-93.913628	1372.363647	76.63035600000001	0.920991	0	-0.37969	0	0	0	0	-1.330832	0
1.4875	0	0	0	0	0	0	-92.429199	1373.890503	77.526894	0.919571	0	-0.379749	0	0	0	0	-1.405804	0
1.488542	0	0	0	0	0	0	-90.889442	1375.157959	78.27063	0.918135	0	-0.37984	0	0	0	0	-1.474398	0
1.489583	0	0	0	0	0	0	-89.300217	1376.160645	78.858665	0.9166840000000001	0	-0.379964	0	0	0	0	-1.536719	0
1.490625	0	0	0	0	0	0	-87.66881600000001	1376.896118	79.291481	0.915221	0	-0.38012	0	0	0	0	-1.592901	0
1.491667	0	0	0	0	0	0	-86.00372299999999	1377.365112	79.572891	0.913747	0	-0.380307	0	0	0	0	-1.643102	0
1.492708	0	0	0	0	0	0	-84.31435399999999	1377.571533	79.709862	0.912265	0	-0.380524	0	0	0	0	-1.687503	0
1.49375	0	0	0	0	0	0	-82.610794	1377.522461	79.712357	0.910776	0	-0.380769	0	0	0	0	-1.726306	0
1.494792	0	0	0	0	0	0	-80.903488	1377.228149	79.592979	0.909282	0	-0.381037	0	0	0	0	-1.759734	0
1.495833	0	0	0	0	0	0	-79.20298	1376.701294	79.366653	0.907788	0	-0.381326	0	0	0	0	-1.788025	0
1.496875	0	0	0	0	0	0	-77.519592	1375.957275	79.050201	0.906294	0	-0.381631	0	0	0	0	-1.811434	0
1.497917	0	0	0	0	0	0	-75.863113	1375.01355	78.661888	0.9048040000000001	0	-0.381946	0	0	0	0	-1.830225	0
1.498958	0	0	0	0	0	0	-74.242538	1373.889404	78.220955	0.903319	0	-0.382268	0	0	0	0	-1.844672	0
1.5	0	0	0	0	0	0	-72.66578699999999	1372.605225	77.747078	0.901843	0	-0.382591	0	0	0	0	-1.855052	0
1.501042	0	0	0	0	0	0	-71.139427	1371.182373	77.259918	0.900376	0	-0.382909	0	0	0	0	-1.861647	0
1.502083	0	0	0	0	0	0	-69.66851	1369.64209	76.77855700000001	0.898921	0	-0.383217	0	0	0	0	-1.864738	0
1.503125	0	0	0	0	0	0	-68.256348	1368.005615	76.321091	0.897479	0	-0.383511	0	0	0	0	-1.864601	0
1.504167	0	0	0	0	0	0	-66.904442	1366.293335	75.90411400000001	0.896051	0	-0.383785	0	0	0	0	-1.861506	0
1.505208	0	0	0	0	0	0	-65.612381	1364.524536	75.54238100000001	0.894636	0	-0.384036	0	0	0	0	-1.855713	0
1.50625	0	0	0	0	0	0	-64.377869	1362.716431	75.248436	0.893235	0	-0.384259	0	0	0	0	-1.847472	0
1.507292	0	0	0	0	0	0	-63.196781	1360.884521	75.032295	0.891848	0	-0.384452	0	0	0	0	-1.837017	0
1.508333	0	0	0	0	0	0	-62.063278	1359.041748	74.90128300000001	0.890473	0	-0.384612	0	0	0	0	-1.824569	0
1.509375	0	0	0	0	0	0	-60.97002	1357.198364	74.859871	0.889109	0	-0.384737	0	0	0	0	-1.810328	0
1.510417	0	0	0	0	0	0	-59.908405	1355.361694	74.909561	0.887754	0	-0.384827	0	0	0	0	-1.794478	0
1.511458	0	0	0	0	0	0	-58.868847	1353.536255	75.048981	0.8864069999999999	0	-0.384882	0	0	0	0	-1.777183	0
1.5125	0	0	0	0	0	0	-57.841125	1351.723267	75.273865	0.885066	0	-0.384902	0	0	0	0	-1.758587	0
1.513542	0	0	0	0	0	0	-56.814705	1349.921143	75.57730100000001	0.883728	0	-0.38489	0	0	0	0	-1.738814	0
1.514583	0	0	0	0	0	0	-55.779091	1348.125244	75.949867	0.882391	0	-0.384848	0	0	0	0	-1.717967	0
1.515625	0	0	0	0	0	0	-54.724174	1346.328003	76.37996699999999	0.881053	0	-0.384778	0	0	0	0	-1.696133	0
1.516667	0	0	0	0	0	0	-53.640511	1344.519531	76.85414900000001	0.879712	0	-0.384686	0	0	0	0	-1.673378	0
1.517708	0	0	0	0	0	0	-52.519608	1342.6875	77.357468	0.878366	0	-0.384575	0	0	0	0	-1.64975	0
1.51875	0	0	0	0	0	0	-51.354126	1340.817505	77.87389400000001	0.877013	0	-0.384449	0	0	0	0	-1.625284	0
1.519792	0	0	0	0	0	0	-50.138016	1338.893799	78.38674899999999	0.875652	0	-0.384314	0	0	0	0	-1.599998	0
1.520833	0	0	0	0	0	0	-48.866631	1336.89917	78.879143	0.874281	0	-0.384174	0	0	0	0	-1.5739	0
1.521875	0	0	0	0	0	0	-47.536739	1334.815796	79.33440400000001	0.8729	0	-0.384035	0	0	0	0	-1.546985	0
1.522917	0	0	0	0	0	0	-46.146519	1332.625854	79.73651099999999	0.8715079999999999	0	-0.383901	0	0	0	0	-1.519241	0
1.523958	0	0	0	0	0	0	-44.69548	1330.311401	80.070488	0.870104	0	-0.383776	0	0	0	0	-1.490648	0
1.525	0	0	0	0	0	0	-43.184364	1327.855347	80.32276899999999	0.868688	0	-0.383665	0	0	0	0	-1.461182	0
1.526042	0	0	0	0	0	0	-41.61504	1325.241577	80.481522	0.8672609999999999	0	-0.383572	0	0	0	0	-1.430816	0
1.527083	0	0	0	0	0	0	-39.990364	1322.455688	80.53692599999999	0.865823	0	-0.383499	0	0	0	0	-1.39952	0
1.528125	0	0	0	0	0	0	-38.314049	1319.485229	80.48137699999999	0.8643729999999999	0	-0.383448	0	0	0	0	-1.367266	0
1.529167	0	0	0	0	0	0	-36.590549	1316.319824	80.309647	0.862914	0	-0.383422	0	0	0	0	-1.334028	0
1.530208	0	0	0	0	0	0	-34.824951	1312.952026	80.01899	0.861445	0	-0.383422	0	0	0	0	-1.29978	0
1.53125	0	0	0	0	0	0	-33.022881	1309.376587	79.609123	0.859968	0	-0.383447	0	0	0	0	-1.264504	0
1.532292	0	0	0	0	0	0	-31.190411	1305.591675	79.082245	0.858484	0	-0.383497	0	0	0	0	-1.228183	0
1.533333	0	0	0	0	0	0	-29.333992	1301.598022	78.442871	0.856995	0	-0.383572	0	0	0	0	-1.190807	0
1.534375	0	0	0	0	0	0	-27.460371	1297.399292	77.697723	0.855501	0	-0.383668	0	0	0	0	-1.152371	0
1.535417	0	0	0	0	0	0	-25.576504	1293.002319	76.855492	0.854005	0	-0.383784	0	0	0	0	-1.112875	0
1.536458	0	0	0	0	0	0	-23.689451	1288.416016	75.92656700000001	0.852507	0	-0.383918	0	0	0	0	-1.072326	0
1.5375	0	0	0	0	0	0	-21.806255	1283.652222	74.922752	0.851011	0	-0.384064	0	0	0	0	-1.030735	0
1.538542	0	0	0	0	0	0	-19.933794	1278.724243	73.856934	0.849518	0	-0.38422	0	0	0	0	-0.988117	0
